<svg width="1702" height="889" xmlns="http://www.w3.org/2000/svg" xmlns:xlink="http://www.w3.org/1999/xlink" xml:space="preserve" overflow="hidden"><g transform="translate(-252 -250)"><rect x="1429.5" y="974.5" width="130" height="130" stroke="#3F4D21" stroke-width="9.16667" stroke-linejoin="round" stroke-miterlimit="10" fill="#9BBB59"/><text font-family="Arial,Arial_MSFontService,sans-serif" font-weight="400" font-size="83" transform="matrix(1 0 0 1 1471.18 1070)">9</text><rect x="974.5" y="844.5" width="130" height="130" stroke="#322642" stroke-width="9.16667" stroke-linejoin="round" stroke-miterlimit="10" fill="#8064A2"/><text font-family="Arial,Arial_MSFontService,sans-serif" font-weight="400" font-size="83" transform="matrix(1 0 0 1 1016.45 940)">8</text><rect x="844.5" y="844.5" width="130" height="130" stroke="#322642" stroke-width="9.16667" stroke-linejoin="round" stroke-miterlimit="10" fill="#8064A2"/><text font-family="Arial,Arial_MSFontService,sans-serif" font-weight="400" font-size="83" transform="matrix(1 0 0 1 886.532 940)">7</text><rect x="1559.5" y="844.5" width="130" height="130" stroke="#3F4D21" stroke-width="9.16667" stroke-linejoin="round" stroke-miterlimit="10" fill="#9BBB59"/><text font-family="Arial,Arial_MSFontService,sans-serif" font-weight="400" font-size="83" transform="matrix(1 0 0 1 1601.1 940)">6</text><rect x="1429.5" y="844.5" width="130" height="130" stroke="#3F4D21" stroke-width="9.16667" stroke-linejoin="round" stroke-miterlimit="10" fill="#9BBB59"/><text font-family="Arial,Arial_MSFontService,sans-serif" font-weight="400" font-size="83" transform="matrix(1 0 0 1 1470.64 940)">5</text><rect x="390.5" y="844.5" width="130" height="130" stroke="#1A4652" stroke-width="9.16667" stroke-linejoin="round" stroke-miterlimit="10" fill="#4BACC6"/><text font-family="Arial,Arial_MSFontService,sans-serif" font-weight="400" font-size="83" transform="matrix(1 0 0 1 431.808 940)">4</text><rect x="1430.5" y="260.5" width="130" height="130" stroke="#3F4D21" stroke-width="9.16667" stroke-linejoin="round" stroke-miterlimit="10" fill="#9BBB59"/><text font-family="Arial,Arial_MSFontService,sans-serif" font-weight="400" font-size="83" transform="matrix(1 0 0 1 1472.26 355)">9</text><rect x="1300.5" y="260.5" width="130" height="130" stroke="#322642" stroke-width="9.16667" stroke-linejoin="round" stroke-miterlimit="10" fill="#8064A2"/><text font-family="Arial,Arial_MSFontService,sans-serif" font-weight="400" font-size="83" transform="matrix(1 0 0 1 1341.8 355)">8</text><rect x="1170.5" y="260.5" width="130" height="130" stroke="#322642" stroke-width="9.16667" stroke-linejoin="round" stroke-miterlimit="10" fill="#8064A2"/><text font-family="Arial,Arial_MSFontService,sans-serif" font-weight="400" font-size="83" transform="matrix(1 0 0 1 1211.88 355)">7</text><rect x="1040.5" y="260.5" width="130" height="130" stroke="#3F4D21" stroke-width="9.16667" stroke-linejoin="round" stroke-miterlimit="10" fill="#9BBB59"/><text font-family="Arial,Arial_MSFontService,sans-serif" font-weight="400" font-size="83" transform="matrix(1 0 0 1 1081.96 355)">6</text><rect x="910.5" y="260.5" width="130" height="130" stroke="#3F4D21" stroke-width="9.16667" stroke-linejoin="round" stroke-miterlimit="10" fill="#9BBB59"/><text font-family="Arial,Arial_MSFontService,sans-serif" font-weight="400" font-size="83" transform="matrix(1 0 0 1 952.034 355)">5</text><rect x="780.5" y="260.5" width="130" height="130" stroke="#1A4652" stroke-width="9.16667" stroke-linejoin="round" stroke-miterlimit="10" fill="#4BACC6"/><text font-family="Arial,Arial_MSFontService,sans-serif" font-weight="400" font-size="83" transform="matrix(1 0 0 1 822.113 355)">4</text><rect x="650.5" y="260.5" width="130" height="130" stroke="#1A4652" stroke-width="9.16667" stroke-linejoin="round" stroke-miterlimit="10" fill="#4BACC6"/><text font-family="Arial,Arial_MSFontService,sans-serif" font-weight="400" font-size="83" transform="matrix(1 0 0 1 692.192 355)">3</text><rect x="520.5" y="260.5" width="130" height="130" stroke="#3F4D21" stroke-width="9.16667" stroke-linejoin="round" stroke-miterlimit="10" fill="#9BBB59"/><text font-family="Arial,Arial_MSFontService,sans-serif" font-weight="400" font-size="83" transform="matrix(1 0 0 1 561.729 355)">2</text><rect x="390.5" y="260.5" width="130" height="130" stroke="#322642" stroke-width="9.16667" stroke-linejoin="round" stroke-miterlimit="10" fill="#8064A2"/><text font-family="Arial,Arial_MSFontService,sans-serif" font-weight="400" font-size="83" transform="matrix(1 0 0 1 431.808 355)">1</text><rect x="260.5" y="260.5" width="130" height="130" stroke="#1A4652" stroke-width="9.16667" stroke-linejoin="round" stroke-miterlimit="10" fill="#4BACC6"/><text font-family="Arial,Arial_MSFontService,sans-serif" font-weight="400" font-size="83" transform="matrix(1 0 0 1 301.886 355)">0</text><rect x="260.5" y="844.5" width="130" height="130" stroke="#1A4652" stroke-width="9.16667" stroke-linejoin="round" stroke-miterlimit="10" fill="#4BACC6"/><text font-family="Arial,Arial_MSFontService,sans-serif" font-weight="400" font-size="83" transform="matrix(1 0 0 1 301.886 940)">3</text><rect x="1429.5" y="715.5" width="130" height="129" stroke="#3F4D21" stroke-width="9.16667" stroke-linejoin="round" stroke-miterlimit="10" fill="#9BBB59"/><text font-family="Arial,Arial_MSFontService,sans-serif" font-weight="400" font-size="83" transform="matrix(1 0 0 1 1471.18 810)">2</text><rect x="844.5" y="715.5" width="130" height="129" stroke="#322642" stroke-width="9.16667" stroke-linejoin="round" stroke-miterlimit="10" fill="#8064A2"/><text font-family="Arial,Arial_MSFontService,sans-serif" font-weight="400" font-size="83" transform="matrix(1 0 0 1 886.532 810)">1</text><rect x="260.5" y="715.5" width="130" height="129" stroke="#1A4652" stroke-width="9.16667" stroke-linejoin="round" stroke-miterlimit="10" fill="#4BACC6"/><text font-family="Arial,Arial_MSFontService,sans-serif" font-weight="400" font-size="83" transform="matrix(1 0 0 1 301.886 810)">0</text><rect x="1429.5" y="520.5" width="520" height="130" stroke="#3F4D21" stroke-width="9.16667" stroke-linejoin="round" stroke-miterlimit="10" fill="#9BBB59"/><text font-family="Arial,Arial_MSFontService,sans-serif" font-weight="400" font-size="83" transform="matrix(1 0 0 1 1523.98 615)">Thread 2</text><rect x="844.5" y="520.5" width="520" height="130" stroke="#322642" stroke-width="9.16667" stroke-linejoin="round" stroke-miterlimit="10" fill="#8064A2"/><text font-family="Arial,Arial_MSFontService,sans-serif" font-weight="400" font-size="83" transform="matrix(1 0 0 1 939.331 615)">Thread 1</text><rect x="260.5" y="520.5" width="520" height="130" stroke="#1A4652" stroke-width="9.16667" stroke-linejoin="round" stroke-miterlimit="10" fill="#4BACC6"/><text font-family="Arial,Arial_MSFontService,sans-serif" font-weight="400" font-size="83" transform="matrix(1 0 0 1 355.227 615)">Thread</text><text font-family="Arial,Arial_MSFontService,sans-serif" font-weight="400" font-size="83" transform="matrix(1 0 0 1 639.393 615)">0</text></g></svg>