<svg width="2260" height="1038" xmlns="http://www.w3.org/2000/svg" xmlns:xlink="http://www.w3.org/1999/xlink" xml:space="preserve" overflow="hidden"><g transform="translate(-50 -329)"><rect x="520.5" y="520.5" width="260" height="130" stroke="#000000" stroke-width="4.58333" stroke-linejoin="round" stroke-miterlimit="10" fill="#F2F2F2"/><text font-family="Consolas,Consolas_MSFontService,sans-serif" font-weight="700" font-size="55" transform="matrix(1 0 0 1 588.877 604)">a</text><text font-family="Consolas,Consolas_MSFontService,sans-serif" font-weight="700" font-size="55" transform="matrix(1 0 0 1 619.242 604)">[</text><text font-family="Consolas,Consolas_MSFontService,sans-serif" font-weight="700" font-size="55" transform="matrix(1 0 0 1 649.606 604)">i</text><text font-family="Consolas,Consolas_MSFontService,sans-serif" font-weight="700" font-size="55" transform="matrix(1 0 0 1 679.971 604)">]</text><rect x="974.5" y="520.5" width="260" height="130" stroke="#000000" stroke-width="4.58333" stroke-linejoin="round" stroke-miterlimit="10" fill="#F2F2F2"/><text font-family="Consolas,Consolas_MSFontService,sans-serif" font-weight="700" font-size="55" transform="matrix(1 0 0 1 1043.6 604)">a</text><text font-family="Consolas,Consolas_MSFontService,sans-serif" font-weight="700" font-size="55" transform="matrix(1 0 0 1 1073.97 604)">[</text><text font-family="Consolas,Consolas_MSFontService,sans-serif" font-weight="700" font-size="55" transform="matrix(1 0 0 1 1104.33 604)">i</text><text font-family="Consolas,Consolas_MSFontService,sans-serif" font-weight="700" font-size="55" transform="matrix(1 0 0 1 1134.7 604)">]</text><text font-family="Consolas,Consolas_MSFontService,sans-serif" font-weight="700" font-size="55" transform="matrix(1 0 0 1 801.057 604)">= 2 *</text><rect x="1559.5" y="520.5" width="260" height="130" stroke="#000000" stroke-width="4.58333" stroke-linejoin="round" stroke-miterlimit="10" fill="#F2F2F2"/><text font-family="Consolas,Consolas_MSFontService,sans-serif" font-weight="700" font-size="55" transform="matrix(1 0 0 1 1597.88 604)">a</text><text font-family="Consolas,Consolas_MSFontService,sans-serif" font-weight="700" font-size="55" transform="matrix(1 0 0 1 1628.25 604)">[</text><text font-family="Consolas,Consolas_MSFontService,sans-serif" font-weight="700" font-size="55" transform="matrix(1 0 0 1 1658.61 604)">i+1</text><text font-family="Consolas,Consolas_MSFontService,sans-serif" font-weight="700" font-size="55" transform="matrix(1 0 0 1 1749.71 604)">]</text><rect x="2014.5" y="520.5" width="260" height="130" stroke="#000000" stroke-width="4.58333" stroke-linejoin="round" stroke-miterlimit="10" fill="#F2F2F2"/><text font-family="Consolas,Consolas_MSFontService,sans-serif" font-weight="700" font-size="55" transform="matrix(1 0 0 1 2052.61 604)">a</text><text font-family="Consolas,Consolas_MSFontService,sans-serif" font-weight="700" font-size="55" transform="matrix(1 0 0 1 2082.97 604)">[i</text><text font-family="Consolas,Consolas_MSFontService,sans-serif" font-weight="700" font-size="55" transform="matrix(1 0 0 1 2143.7 604)">+1</text><text font-family="Consolas,Consolas_MSFontService,sans-serif" font-weight="700" font-size="55" transform="matrix(1 0 0 1 2204.43 604)">]</text><text font-family="Consolas,Consolas_MSFontService,sans-serif" font-weight="700" font-size="55" transform="matrix(1 0 0 1 1840.43 604)">= 2 *</text><text font-family="Arial,Arial_MSFontService,sans-serif" font-weight="400" font-size="83" transform="matrix(1 0 0 1 552.685 434)">Instructions</text><path d="M520.5 451.062 2267.66 451.063 2267.66 457.938 520.5 457.937ZM2241.86 435.489 2274.45 454.5 2241.86 473.511C2240.22 474.468 2238.12 473.914 2237.16 472.274 2236.2 470.634 2236.76 468.529 2238.4 467.573L2265.9 451.531 2265.9 457.47 2238.4 441.428C2236.76 440.471 2236.2 438.366 2237.16 436.727 2238.12 435.087 2240.22 434.533 2241.86 435.489Z"/><text font-family="Arial,Arial_MSFontService,sans-serif" font-weight="400" font-size="83" transform="matrix(1 0 0 1 186.906 616)">Serial</text><rect x="520.5" y="844.5" width="260" height="130" stroke="#000000" stroke-width="4.58333" stroke-linejoin="round" stroke-miterlimit="10" fill="#F2F2F2"/><text font-family="Consolas,Consolas_MSFontService,sans-serif" font-weight="700" font-size="55" transform="matrix(1 0 0 1 558.512 928)">a</text><text font-family="Consolas,Consolas_MSFontService,sans-serif" font-weight="700" font-size="55" transform="matrix(1 0 0 1 588.877 928)">[i</text><text font-family="Consolas,Consolas_MSFontService,sans-serif" font-weight="700" font-size="55" transform="matrix(1 0 0 1 649.606 928)">+0</text><text font-family="Consolas,Consolas_MSFontService,sans-serif" font-weight="700" font-size="55" transform="matrix(1 0 0 1 710.335 928)">]</text><rect x="974.5" y="844.5" width="260" height="130" stroke="#000000" stroke-width="4.58333" stroke-linejoin="round" stroke-miterlimit="10" fill="#F2F2F2"/><text font-family="Consolas,Consolas_MSFontService,sans-serif" font-weight="700" font-size="55" transform="matrix(1 0 0 1 1013.24 928)">a</text><text font-family="Consolas,Consolas_MSFontService,sans-serif" font-weight="700" font-size="55" transform="matrix(1 0 0 1 1043.6 928)">[i</text><text font-family="Consolas,Consolas_MSFontService,sans-serif" font-weight="700" font-size="55" transform="matrix(1 0 0 1 1104.33 928)">+0</text><text font-family="Consolas,Consolas_MSFontService,sans-serif" font-weight="700" font-size="55" transform="matrix(1 0 0 1 1165.06 928)">]</text><text font-family="Consolas,Consolas_MSFontService,sans-serif" font-weight="700" font-size="55" transform="matrix(1 0 0 1 801.057 1123)">= 2 *</text><rect x="520.5" y="974.5" width="260" height="130" stroke="#000000" stroke-width="4.58333" stroke-linejoin="round" stroke-miterlimit="10" fill="#F2F2F2"/><text font-family="Consolas,Consolas_MSFontService,sans-serif" font-weight="700" font-size="55" transform="matrix(1 0 0 1 558.512 1058)">a</text><text font-family="Consolas,Consolas_MSFontService,sans-serif" font-weight="700" font-size="55" transform="matrix(1 0 0 1 588.877 1058)">[i</text><text font-family="Consolas,Consolas_MSFontService,sans-serif" font-weight="700" font-size="55" transform="matrix(1 0 0 1 649.606 1058)">+1</text><text font-family="Consolas,Consolas_MSFontService,sans-serif" font-weight="700" font-size="55" transform="matrix(1 0 0 1 710.335 1058)">]</text><rect x="520.5" y="1104.5" width="260" height="130" stroke="#000000" stroke-width="4.58333" stroke-linejoin="round" stroke-miterlimit="10" fill="#F2F2F2"/><text font-family="Consolas,Consolas_MSFontService,sans-serif" font-weight="700" font-size="55" transform="matrix(1 0 0 1 558.512 1188)">a</text><text font-family="Consolas,Consolas_MSFontService,sans-serif" font-weight="700" font-size="55" transform="matrix(1 0 0 1 588.877 1188)">[i</text><text font-family="Consolas,Consolas_MSFontService,sans-serif" font-weight="700" font-size="55" transform="matrix(1 0 0 1 649.606 1188)">+2</text><text font-family="Consolas,Consolas_MSFontService,sans-serif" font-weight="700" font-size="55" transform="matrix(1 0 0 1 710.335 1188)">]</text><rect x="520.5" y="1234.5" width="260" height="130" stroke="#000000" stroke-width="4.58333" stroke-linejoin="round" stroke-miterlimit="10" fill="#F2F2F2"/><text font-family="Consolas,Consolas_MSFontService,sans-serif" font-weight="700" font-size="55" transform="matrix(1 0 0 1 558.512 1318)">a</text><text font-family="Consolas,Consolas_MSFontService,sans-serif" font-weight="700" font-size="55" transform="matrix(1 0 0 1 588.877 1318)">[i</text><text font-family="Consolas,Consolas_MSFontService,sans-serif" font-weight="700" font-size="55" transform="matrix(1 0 0 1 649.606 1318)">+3</text><text font-family="Consolas,Consolas_MSFontService,sans-serif" font-weight="700" font-size="55" transform="matrix(1 0 0 1 710.335 1318)">]</text><rect x="974.5" y="974.5" width="260" height="130" stroke="#000000" stroke-width="4.58333" stroke-linejoin="round" stroke-miterlimit="10" fill="#F2F2F2"/><text font-family="Consolas,Consolas_MSFontService,sans-serif" font-weight="700" font-size="55" transform="matrix(1 0 0 1 1013.24 1058)">a</text><text font-family="Consolas,Consolas_MSFontService,sans-serif" font-weight="700" font-size="55" transform="matrix(1 0 0 1 1043.6 1058)">[i</text><text font-family="Consolas,Consolas_MSFontService,sans-serif" font-weight="700" font-size="55" transform="matrix(1 0 0 1 1104.33 1058)">+1</text><text font-family="Consolas,Consolas_MSFontService,sans-serif" font-weight="700" font-size="55" transform="matrix(1 0 0 1 1165.06 1058)">]</text><rect x="974.5" y="1104.5" width="260" height="130" stroke="#000000" stroke-width="4.58333" stroke-linejoin="round" stroke-miterlimit="10" fill="#F2F2F2"/><text font-family="Consolas,Consolas_MSFontService,sans-serif" font-weight="700" font-size="55" transform="matrix(1 0 0 1 1013.24 1188)">a</text><text font-family="Consolas,Consolas_MSFontService,sans-serif" font-weight="700" font-size="55" transform="matrix(1 0 0 1 1043.6 1188)">[i</text><text font-family="Consolas,Consolas_MSFontService,sans-serif" font-weight="700" font-size="55" transform="matrix(1 0 0 1 1104.33 1188)">+2</text><text font-family="Consolas,Consolas_MSFontService,sans-serif" font-weight="700" font-size="55" transform="matrix(1 0 0 1 1165.06 1188)">]</text><rect x="974.5" y="1234.5" width="260" height="130" stroke="#000000" stroke-width="4.58333" stroke-linejoin="round" stroke-miterlimit="10" fill="#F2F2F2"/><text font-family="Consolas,Consolas_MSFontService,sans-serif" font-weight="700" font-size="55" transform="matrix(1 0 0 1 1013.24 1318)">a</text><text font-family="Consolas,Consolas_MSFontService,sans-serif" font-weight="700" font-size="55" transform="matrix(1 0 0 1 1043.6 1318)">[i</text><text font-family="Consolas,Consolas_MSFontService,sans-serif" font-weight="700" font-size="55" transform="matrix(1 0 0 1 1104.33 1318)">+3</text><text font-family="Consolas,Consolas_MSFontService,sans-serif" font-weight="700" font-size="55" transform="matrix(1 0 0 1 1165.06 1318)">]</text><rect x="1559.5" y="844.5" width="260" height="130" stroke="#000000" stroke-width="4.58333" stroke-linejoin="round" stroke-miterlimit="10" fill="#F2F2F2"/><text font-family="Consolas,Consolas_MSFontService,sans-serif" font-weight="700" font-size="55" transform="matrix(1 0 0 1 1597.88 928)">a</text><text font-family="Consolas,Consolas_MSFontService,sans-serif" font-weight="700" font-size="55" transform="matrix(1 0 0 1 1628.25 928)">[i</text><text font-family="Consolas,Consolas_MSFontService,sans-serif" font-weight="700" font-size="55" transform="matrix(1 0 0 1 1688.98 928)">+4</text><text font-family="Consolas,Consolas_MSFontService,sans-serif" font-weight="700" font-size="55" transform="matrix(1 0 0 1 1749.71 928)">]</text><rect x="2014.5" y="844.5" width="260" height="130" stroke="#000000" stroke-width="4.58333" stroke-linejoin="round" stroke-miterlimit="10" fill="#F2F2F2"/><text font-family="Consolas,Consolas_MSFontService,sans-serif" font-weight="700" font-size="55" transform="matrix(1 0 0 1 2052.61 928)">a</text><text font-family="Consolas,Consolas_MSFontService,sans-serif" font-weight="700" font-size="55" transform="matrix(1 0 0 1 2082.97 928)">[i</text><text font-family="Consolas,Consolas_MSFontService,sans-serif" font-weight="700" font-size="55" transform="matrix(1 0 0 1 2143.7 928)">+4</text><text font-family="Consolas,Consolas_MSFontService,sans-serif" font-weight="700" font-size="55" transform="matrix(1 0 0 1 2204.43 928)">]</text><text font-family="Consolas,Consolas_MSFontService,sans-serif" font-weight="700" font-size="55" transform="matrix(1 0 0 1 1840.43 1123)">= 2 *</text><rect x="1559.5" y="974.5" width="260" height="130" stroke="#000000" stroke-width="4.58333" stroke-linejoin="round" stroke-miterlimit="10" fill="#F2F2F2"/><text font-family="Consolas,Consolas_MSFontService,sans-serif" font-weight="700" font-size="55" transform="matrix(1 0 0 1 1597.88 1058)">a</text><text font-family="Consolas,Consolas_MSFontService,sans-serif" font-weight="700" font-size="55" transform="matrix(1 0 0 1 1628.25 1058)">[i</text><text font-family="Consolas,Consolas_MSFontService,sans-serif" font-weight="700" font-size="55" transform="matrix(1 0 0 1 1688.98 1058)">+5</text><text font-family="Consolas,Consolas_MSFontService,sans-serif" font-weight="700" font-size="55" transform="matrix(1 0 0 1 1749.71 1058)">]</text><rect x="1559.5" y="1104.5" width="260" height="130" stroke="#000000" stroke-width="4.58333" stroke-linejoin="round" stroke-miterlimit="10" fill="#F2F2F2"/><text font-family="Consolas,Consolas_MSFontService,sans-serif" font-weight="700" font-size="55" transform="matrix(1 0 0 1 1597.88 1188)">a</text><text font-family="Consolas,Consolas_MSFontService,sans-serif" font-weight="700" font-size="55" transform="matrix(1 0 0 1 1628.25 1188)">[i</text><text font-family="Consolas,Consolas_MSFontService,sans-serif" font-weight="700" font-size="55" transform="matrix(1 0 0 1 1688.98 1188)">+6</text><text font-family="Consolas,Consolas_MSFontService,sans-serif" font-weight="700" font-size="55" transform="matrix(1 0 0 1 1749.71 1188)">]</text><rect x="1559.5" y="1234.5" width="260" height="130" stroke="#000000" stroke-width="4.58333" stroke-linejoin="round" stroke-miterlimit="10" fill="#F2F2F2"/><text font-family="Consolas,Consolas_MSFontService,sans-serif" font-weight="700" font-size="55" transform="matrix(1 0 0 1 1597.88 1318)">a</text><text font-family="Consolas,Consolas_MSFontService,sans-serif" font-weight="700" font-size="55" transform="matrix(1 0 0 1 1628.25 1318)">[i</text><text font-family="Consolas,Consolas_MSFontService,sans-serif" font-weight="700" font-size="55" transform="matrix(1 0 0 1 1688.98 1318)">+7</text><text font-family="Consolas,Consolas_MSFontService,sans-serif" font-weight="700" font-size="55" transform="matrix(1 0 0 1 1749.71 1318)">]</text><rect x="2014.5" y="974.5" width="260" height="130" stroke="#000000" stroke-width="4.58333" stroke-linejoin="round" stroke-miterlimit="10" fill="#F2F2F2"/><text font-family="Consolas,Consolas_MSFontService,sans-serif" font-weight="700" font-size="55" transform="matrix(1 0 0 1 2052.61 1058)">a</text><text font-family="Consolas,Consolas_MSFontService,sans-serif" font-weight="700" font-size="55" transform="matrix(1 0 0 1 2082.97 1058)">[i</text><text font-family="Consolas,Consolas_MSFontService,sans-serif" font-weight="700" font-size="55" transform="matrix(1 0 0 1 2143.7 1058)">+5</text><text font-family="Consolas,Consolas_MSFontService,sans-serif" font-weight="700" font-size="55" transform="matrix(1 0 0 1 2204.43 1058)">]</text><rect x="2014.5" y="1104.5" width="260" height="130" stroke="#000000" stroke-width="4.58333" stroke-linejoin="round" stroke-miterlimit="10" fill="#F2F2F2"/><text font-family="Consolas,Consolas_MSFontService,sans-serif" font-weight="700" font-size="55" transform="matrix(1 0 0 1 2052.61 1188)">a</text><text font-family="Consolas,Consolas_MSFontService,sans-serif" font-weight="700" font-size="55" transform="matrix(1 0 0 1 2082.97 1188)">[i</text><text font-family="Consolas,Consolas_MSFontService,sans-serif" font-weight="700" font-size="55" transform="matrix(1 0 0 1 2143.7 1188)">+6</text><text font-family="Consolas,Consolas_MSFontService,sans-serif" font-weight="700" font-size="55" transform="matrix(1 0 0 1 2204.43 1188)">]</text><rect x="2014.5" y="1234.5" width="260" height="130" stroke="#000000" stroke-width="4.58333" stroke-linejoin="round" stroke-miterlimit="10" fill="#F2F2F2"/><text font-family="Consolas,Consolas_MSFontService,sans-serif" font-weight="700" font-size="55" transform="matrix(1 0 0 1 2052.61 1318)">a</text><text font-family="Consolas,Consolas_MSFontService,sans-serif" font-weight="700" font-size="55" transform="matrix(1 0 0 1 2082.97 1318)">[i</text><text font-family="Consolas,Consolas_MSFontService,sans-serif" font-weight="700" font-size="55" transform="matrix(1 0 0 1 2143.7 1318)">+7</text><text font-family="Consolas,Consolas_MSFontService,sans-serif" font-weight="700" font-size="55" transform="matrix(1 0 0 1 2204.43 1318)">]</text><text font-family="Arial,Arial_MSFontService,sans-serif" font-weight="400" font-size="83" transform="matrix(1 0 0 1 99.8115 1136)">Vectorized</text><path d="M520.5 747.5 2274.44 747.501" stroke="#000000" stroke-width="6.875" stroke-linejoin="round" stroke-miterlimit="10" stroke-dasharray="27.5 20.625" fill="none" fill-rule="evenodd"/></g></svg>