<svg width="2989" height="1295" xmlns="http://www.w3.org/2000/svg" xmlns:xlink="http://www.w3.org/1999/xlink" xml:space="preserve" overflow="hidden"><defs><filter id="fx0" x="-10%" y="-10%" width="120%" height="120%" filterUnits="userSpaceOnUse" primitiveUnits="userSpaceOnUse"><feComponentTransfer color-interpolation-filters="sRGB"><feFuncR type="discrete" tableValues="0 0"/><feFuncG type="discrete" tableValues="0 0"/><feFuncB type="discrete" tableValues="0 0"/><feFuncA type="linear" slope="0.34902" intercept="0"/></feComponentTransfer><feGaussianBlur stdDeviation="4.8119 4.8119"/></filter><filter id="fx1" x="-10%" y="-10%" width="120%" height="120%" filterUnits="userSpaceOnUse" primitiveUnits="userSpaceOnUse"><feComponentTransfer color-interpolation-filters="sRGB"><feFuncR type="discrete" tableValues="0 0"/><feFuncG type="discrete" tableValues="0 0"/><feFuncB type="discrete" tableValues="0 0"/><feFuncA type="linear" slope="0.34902" intercept="0"/></feComponentTransfer><feGaussianBlur stdDeviation="4.8119 4.8119"/></filter><filter id="fx2" x="-10%" y="-10%" width="120%" height="120%" filterUnits="userSpaceOnUse" primitiveUnits="userSpaceOnUse"><feComponentTransfer color-interpolation-filters="sRGB"><feFuncR type="discrete" tableValues="0 0"/><feFuncG type="discrete" tableValues="0 0"/><feFuncB type="discrete" tableValues="0 0"/><feFuncA type="linear" slope="0.34902" intercept="0"/></feComponentTransfer><feGaussianBlur stdDeviation="4.8119 4.8119"/></filter><filter id="fx3" x="-10%" y="-10%" width="120%" height="120%" filterUnits="userSpaceOnUse" primitiveUnits="userSpaceOnUse"><feComponentTransfer color-interpolation-filters="sRGB"><feFuncR type="discrete" tableValues="0 0"/><feFuncG type="discrete" tableValues="0 0"/><feFuncB type="discrete" tableValues="0 0"/><feFuncA type="linear" slope="0.34902" intercept="0"/></feComponentTransfer><feGaussianBlur stdDeviation="4.8119 4.8119"/></filter><filter id="fx4" x="-10%" y="-10%" width="120%" height="120%" filterUnits="userSpaceOnUse" primitiveUnits="userSpaceOnUse"><feComponentTransfer color-interpolation-filters="sRGB"><feFuncR type="discrete" tableValues="0 0"/><feFuncG type="discrete" tableValues="0 0"/><feFuncB type="discrete" tableValues="0 0"/><feFuncA type="linear" slope="0.34902" intercept="0"/></feComponentTransfer><feGaussianBlur stdDeviation="4.8119 4.8119"/></filter></defs><g transform="translate(-227 -300)"><rect x="260.5" y="520.5" width="130" height="130" stroke="#000000" stroke-width="4.58333" stroke-linejoin="round" stroke-miterlimit="10" fill="#C4BD97"/><text font-family="Arial,Arial_MSFontService,sans-serif" font-weight="700" font-size="83" transform="matrix(1 0 0 1 301.886 615)">0</text><rect x="390.5" y="520.5" width="130" height="130" stroke="#000000" stroke-width="4.58333" stroke-linejoin="round" stroke-miterlimit="10" fill="#C4BD97"/><text font-family="Arial,Arial_MSFontService,sans-serif" font-weight="700" font-size="83" transform="matrix(1 0 0 1 431.808 615)">1</text><rect x="715.5" y="520.5" width="129" height="130" stroke="#000000" stroke-width="4.58333" stroke-linejoin="round" stroke-miterlimit="10" fill="#C4BD97"/><text font-family="Arial,Arial_MSFontService,sans-serif" font-weight="700" font-size="83" transform="matrix(1 0 0 1 733.694 615)">16</text><rect x="845.5" y="520.5" width="130" height="130" stroke="#000000" stroke-width="4.58333" stroke-linejoin="round" stroke-miterlimit="10" fill="#C4BD97"/><text font-family="Arial,Arial_MSFontService,sans-serif" font-weight="700" font-size="83" transform="matrix(1 0 0 1 863.816 615)">17</text><rect x="974.5" y="520.5" width="130" height="130" stroke="#000000" stroke-width="4.58333" stroke-linejoin="round" stroke-miterlimit="10" fill="#C4BD97"/><text font-family="Arial,Arial_MSFontService,sans-serif" font-weight="700" font-size="83" transform="matrix(1 0 0 1 993.536 615)">18</text><rect x="1104.5" y="520.5" width="130" height="130" stroke="#000000" stroke-width="4.58333" stroke-linejoin="round" stroke-miterlimit="10" fill="#C4BD97"/><text font-family="Arial,Arial_MSFontService,sans-serif" font-weight="700" font-size="83" transform="matrix(1 0 0 1 1123.46 615)">19</text><rect x="1429.5" y="520.5" width="130" height="130" stroke="#000000" stroke-width="4.58333" stroke-linejoin="round" stroke-miterlimit="10" fill="#C4BD97"/><text font-family="Arial,Arial_MSFontService,sans-serif" font-weight="700" font-size="83" transform="matrix(1 0 0 1 1448.26 616)">34</text><rect x="1559.5" y="520.5" width="130" height="130" stroke="#000000" stroke-width="4.58333" stroke-linejoin="round" stroke-miterlimit="10" fill="#C4BD97"/><text font-family="Arial,Arial_MSFontService,sans-serif" font-weight="700" font-size="83" transform="matrix(1 0 0 1 1578.38 616)">35</text><rect x="1754.5" y="520.5" width="130" height="130" stroke="#000000" stroke-width="4.58333" stroke-linejoin="round" stroke-miterlimit="10" fill="#C4BD97"/><text font-family="Arial,Arial_MSFontService,sans-serif" font-weight="700" font-size="83" transform="matrix(1 0 0 1 1773.06 616)">36</text><rect x="1884.5" y="520.5" width="130" height="130" stroke="#000000" stroke-width="4.58333" stroke-linejoin="round" stroke-miterlimit="10" fill="#C4BD97"/><text font-family="Arial,Arial_MSFontService,sans-serif" font-weight="700" font-size="83" transform="matrix(1 0 0 1 1903.19 616)">37</text><rect x="2209.5" y="520.5" width="130" height="130" stroke="#000000" stroke-width="4.58333" stroke-linejoin="round" stroke-miterlimit="10" fill="#C4BD97"/><text font-family="Arial,Arial_MSFontService,sans-serif" font-weight="700" font-size="83" transform="matrix(1 0 0 1 2227.79 616)">52</text><rect x="2339.5" y="520.5" width="130" height="130" stroke="#000000" stroke-width="4.58333" stroke-linejoin="round" stroke-miterlimit="10" fill="#C4BD97"/><text font-family="Arial,Arial_MSFontService,sans-serif" font-weight="700" font-size="83" transform="matrix(1 0 0 1 2357.91 616)">53</text><rect x="2469.5" y="520.5" width="129" height="130" stroke="#000000" stroke-width="4.58333" stroke-linejoin="round" stroke-miterlimit="10" fill="#C4BD97"/><text font-family="Arial,Arial_MSFontService,sans-serif" font-weight="700" font-size="83" transform="matrix(1 0 0 1 2487.63 616)">54</text><rect x="2598.5" y="520.5" width="130" height="130" stroke="#000000" stroke-width="4.58333" stroke-linejoin="round" stroke-miterlimit="10" fill="#C4BD97"/><text font-family="Arial,Arial_MSFontService,sans-serif" font-weight="700" font-size="83" transform="matrix(1 0 0 1 2617.55 616)">55</text><rect x="2923.5" y="520.5" width="130" height="130" stroke="#000000" stroke-width="4.58333" stroke-linejoin="round" stroke-miterlimit="10" fill="#C4BD97"/><text font-family="Arial,Arial_MSFontService,sans-serif" font-weight="700" font-size="83" transform="matrix(1 0 0 1 2942.36 615)">70</text><rect x="3053.5" y="520.5" width="130" height="130" stroke="#000000" stroke-width="4.58333" stroke-linejoin="round" stroke-miterlimit="10" fill="#C4BD97"/><text font-family="Arial,Arial_MSFontService,sans-serif" font-weight="700" font-size="83" transform="matrix(1 0 0 1 3072.48 615)">71</text><rect x="260.5" y="650.5" width="130" height="130" stroke="#000000" stroke-width="4.58333" stroke-linejoin="round" stroke-miterlimit="10" fill="#F2F2F2"/><text font-family="Arial,Arial_MSFontService,sans-serif" font-weight="700" font-size="83" transform="matrix(1 0 0 1 276.678 745)">L1</text><rect x="260.5" y="780.5" width="130" height="129" stroke="#000000" stroke-width="4.58333" stroke-linejoin="round" stroke-miterlimit="10" fill="#F2F2F2"/><text font-family="Arial,Arial_MSFontService,sans-serif" font-weight="700" font-size="83" transform="matrix(1 0 0 1 276.678 875)">L2</text><rect x="390.5" y="650.5" width="130" height="130" stroke="#000000" stroke-width="4.58333" stroke-linejoin="round" stroke-miterlimit="10" fill="#F2F2F2"/><text font-family="Arial,Arial_MSFontService,sans-serif" font-weight="700" font-size="83" transform="matrix(1 0 0 1 406.599 745)">L1</text><rect x="390.5" y="780.5" width="130" height="129" stroke="#000000" stroke-width="4.58333" stroke-linejoin="round" stroke-miterlimit="10" fill="#F2F2F2"/><text font-family="Arial,Arial_MSFontService,sans-serif" font-weight="700" font-size="83" transform="matrix(1 0 0 1 406.599 875)">L2</text><rect x="715.5" y="650.5" width="129" height="130" stroke="#000000" stroke-width="4.58333" stroke-linejoin="round" stroke-miterlimit="10" fill="#F2F2F2"/><text font-family="Arial,Arial_MSFontService,sans-serif" font-weight="700" font-size="83" transform="matrix(1 0 0 1 731.402 745)">L1</text><rect x="715.5" y="780.5" width="129" height="129" stroke="#000000" stroke-width="4.58333" stroke-linejoin="round" stroke-miterlimit="10" fill="#F2F2F2"/><text font-family="Arial,Arial_MSFontService,sans-serif" font-weight="700" font-size="83" transform="matrix(1 0 0 1 731.402 875)">L2</text><rect x="844.5" y="650.5" width="130" height="130" stroke="#000000" stroke-width="4.58333" stroke-linejoin="round" stroke-miterlimit="10" fill="#F2F2F2"/><text font-family="Arial,Arial_MSFontService,sans-serif" font-weight="700" font-size="83" transform="matrix(1 0 0 1 861.324 745)">L1</text><rect x="844.5" y="780.5" width="130" height="129" stroke="#000000" stroke-width="4.58333" stroke-linejoin="round" stroke-miterlimit="10" fill="#F2F2F2"/><text font-family="Arial,Arial_MSFontService,sans-serif" font-weight="700" font-size="83" transform="matrix(1 0 0 1 861.324 875)">L2</text><rect x="974.5" y="650.5" width="130" height="130" stroke="#000000" stroke-width="4.58333" stroke-linejoin="round" stroke-miterlimit="10" fill="#F2F2F2"/><text font-family="Arial,Arial_MSFontService,sans-serif" font-weight="700" font-size="83" transform="matrix(1 0 0 1 991.245 745)">L1</text><rect x="974.5" y="780.5" width="130" height="129" stroke="#000000" stroke-width="4.58333" stroke-linejoin="round" stroke-miterlimit="10" fill="#F2F2F2"/><text font-family="Arial,Arial_MSFontService,sans-serif" font-weight="700" font-size="83" transform="matrix(1 0 0 1 991.245 875)">L2</text><rect x="1104.5" y="650.5" width="130" height="130" stroke="#000000" stroke-width="4.58333" stroke-linejoin="round" stroke-miterlimit="10" fill="#F2F2F2"/><text font-family="Arial,Arial_MSFontService,sans-serif" font-weight="700" font-size="83" transform="matrix(1 0 0 1 1121.17 745)">L1</text><rect x="1104.5" y="780.5" width="130" height="129" stroke="#000000" stroke-width="4.58333" stroke-linejoin="round" stroke-miterlimit="10" fill="#F2F2F2"/><text font-family="Arial,Arial_MSFontService,sans-serif" font-weight="700" font-size="83" transform="matrix(1 0 0 1 1121.17 875)">L2</text><rect x="1429.5" y="650.5" width="130" height="130" stroke="#000000" stroke-width="4.58333" stroke-linejoin="round" stroke-miterlimit="10" fill="#F2F2F2"/><text font-family="Arial,Arial_MSFontService,sans-serif" font-weight="700" font-size="83" transform="matrix(1 0 0 1 1445.97 745)">L1</text><rect x="1429.5" y="780.5" width="130" height="129" stroke="#000000" stroke-width="4.58333" stroke-linejoin="round" stroke-miterlimit="10" fill="#F2F2F2"/><text font-family="Arial,Arial_MSFontService,sans-serif" font-weight="700" font-size="83" transform="matrix(1 0 0 1 1445.97 875)">L2</text><rect x="1559.5" y="650.5" width="130" height="130" stroke="#000000" stroke-width="4.58333" stroke-linejoin="round" stroke-miterlimit="10" fill="#F2F2F2"/><text font-family="Arial,Arial_MSFontService,sans-serif" font-weight="700" font-size="83" transform="matrix(1 0 0 1 1575.89 745)">L1</text><rect x="1559.5" y="780.5" width="130" height="129" stroke="#000000" stroke-width="4.58333" stroke-linejoin="round" stroke-miterlimit="10" fill="#F2F2F2"/><text font-family="Arial,Arial_MSFontService,sans-serif" font-weight="700" font-size="83" transform="matrix(1 0 0 1 1575.89 875)">L2</text><rect x="1754.5" y="650.5" width="130" height="130" stroke="#000000" stroke-width="4.58333" stroke-linejoin="round" stroke-miterlimit="10" fill="#F2F2F2"/><text font-family="Arial,Arial_MSFontService,sans-serif" font-weight="700" font-size="83" transform="matrix(1 0 0 1 1770.77 745)">L1</text><rect x="1754.5" y="780.5" width="130" height="129" stroke="#000000" stroke-width="4.58333" stroke-linejoin="round" stroke-miterlimit="10" fill="#F2F2F2"/><text font-family="Arial,Arial_MSFontService,sans-serif" font-weight="700" font-size="83" transform="matrix(1 0 0 1 1770.77 875)">L2</text><rect x="1884.5" y="650.5" width="130" height="130" stroke="#000000" stroke-width="4.58333" stroke-linejoin="round" stroke-miterlimit="10" fill="#F2F2F2"/><text font-family="Arial,Arial_MSFontService,sans-serif" font-weight="700" font-size="83" transform="matrix(1 0 0 1 1900.69 745)">L1</text><rect x="1884.5" y="780.5" width="130" height="129" stroke="#000000" stroke-width="4.58333" stroke-linejoin="round" stroke-miterlimit="10" fill="#F2F2F2"/><text font-family="Arial,Arial_MSFontService,sans-serif" font-weight="700" font-size="83" transform="matrix(1 0 0 1 1900.69 875)">L2</text><rect x="2209.5" y="650.5" width="130" height="130" stroke="#000000" stroke-width="4.58333" stroke-linejoin="round" stroke-miterlimit="10" fill="#F2F2F2"/><text font-family="Arial,Arial_MSFontService,sans-serif" font-weight="700" font-size="83" transform="matrix(1 0 0 1 2225.5 745)">L1</text><rect x="2209.5" y="780.5" width="130" height="129" stroke="#000000" stroke-width="4.58333" stroke-linejoin="round" stroke-miterlimit="10" fill="#F2F2F2"/><text font-family="Arial,Arial_MSFontService,sans-serif" font-weight="700" font-size="83" transform="matrix(1 0 0 1 2225.5 875)">L2</text><rect x="2339.5" y="650.5" width="130" height="130" stroke="#000000" stroke-width="4.58333" stroke-linejoin="round" stroke-miterlimit="10" fill="#F2F2F2"/><text font-family="Arial,Arial_MSFontService,sans-serif" font-weight="700" font-size="83" transform="matrix(1 0 0 1 2355.42 745)">L1</text><rect x="2339.5" y="780.5" width="130" height="129" stroke="#000000" stroke-width="4.58333" stroke-linejoin="round" stroke-miterlimit="10" fill="#F2F2F2"/><text font-family="Arial,Arial_MSFontService,sans-serif" font-weight="700" font-size="83" transform="matrix(1 0 0 1 2355.42 875)">L2</text><rect x="2469.5" y="650.5" width="129" height="130" stroke="#000000" stroke-width="4.58333" stroke-linejoin="round" stroke-miterlimit="10" fill="#F2F2F2"/><text font-family="Arial,Arial_MSFontService,sans-serif" font-weight="700" font-size="83" transform="matrix(1 0 0 1 2485.34 745)">L1</text><rect x="2469.5" y="780.5" width="129" height="129" stroke="#000000" stroke-width="4.58333" stroke-linejoin="round" stroke-miterlimit="10" fill="#F2F2F2"/><text font-family="Arial,Arial_MSFontService,sans-serif" font-weight="700" font-size="83" transform="matrix(1 0 0 1 2485.34 875)">L2</text><rect x="2598.5" y="650.5" width="130" height="130" stroke="#000000" stroke-width="4.58333" stroke-linejoin="round" stroke-miterlimit="10" fill="#F2F2F2"/><text font-family="Arial,Arial_MSFontService,sans-serif" font-weight="700" font-size="83" transform="matrix(1 0 0 1 2615.26 745)">L1</text><rect x="2598.5" y="780.5" width="130" height="129" stroke="#000000" stroke-width="4.58333" stroke-linejoin="round" stroke-miterlimit="10" fill="#F2F2F2"/><text font-family="Arial,Arial_MSFontService,sans-serif" font-weight="700" font-size="83" transform="matrix(1 0 0 1 2615.26 875)">L2</text><rect x="2923.5" y="650.5" width="130" height="130" stroke="#000000" stroke-width="4.58333" stroke-linejoin="round" stroke-miterlimit="10" fill="#F2F2F2"/><text font-family="Arial,Arial_MSFontService,sans-serif" font-weight="700" font-size="83" transform="matrix(1 0 0 1 2940.06 745)">L1</text><rect x="2923.5" y="780.5" width="130" height="129" stroke="#000000" stroke-width="4.58333" stroke-linejoin="round" stroke-miterlimit="10" fill="#F2F2F2"/><text font-family="Arial,Arial_MSFontService,sans-serif" font-weight="700" font-size="83" transform="matrix(1 0 0 1 2940.06 875)">L2</text><rect x="3053.5" y="650.5" width="130" height="130" stroke="#000000" stroke-width="4.58333" stroke-linejoin="round" stroke-miterlimit="10" fill="#F2F2F2"/><text font-family="Arial,Arial_MSFontService,sans-serif" font-weight="700" font-size="83" transform="matrix(1 0 0 1 3069.98 745)">L1</text><rect x="3053.5" y="780.5" width="130" height="129" stroke="#000000" stroke-width="4.58333" stroke-linejoin="round" stroke-miterlimit="10" fill="#F2F2F2"/><text font-family="Arial,Arial_MSFontService,sans-serif" font-weight="700" font-size="83" transform="matrix(1 0 0 1 3069.98 875)">L2</text><rect x="260.5" y="909.5" width="714" height="130" stroke="#000000" stroke-width="4.58333" stroke-linejoin="round" stroke-miterlimit="10" fill="#BFBFBF"/><text font-family="Arial,Arial_MSFontService,sans-serif" font-weight="700" font-size="73" transform="matrix(1 0 0 1 574.444 1001)">L3</text><rect x="974.5" y="909.5" width="715" height="130" stroke="#000000" stroke-width="4.58333" stroke-linejoin="round" stroke-miterlimit="10" fill="#BFBFBF"/><text font-family="Arial,Arial_MSFontService,sans-serif" font-weight="700" font-size="73" transform="matrix(1 0 0 1 1289.01 1001)">L3</text><rect x="1754.5" y="909.5" width="715" height="130" stroke="#000000" stroke-width="4.58333" stroke-linejoin="round" stroke-miterlimit="10" fill="#BFBFBF"/><text font-family="Arial,Arial_MSFontService,sans-serif" font-weight="700" font-size="73" transform="matrix(1 0 0 1 2068.54 1001)">L3</text><rect x="2469.5" y="909.5" width="714" height="130" stroke="#000000" stroke-width="4.58333" stroke-linejoin="round" stroke-miterlimit="10" fill="#BFBFBF"/><text font-family="Arial,Arial_MSFontService,sans-serif" font-weight="700" font-size="73" transform="matrix(1 0 0 1 2783.1 1001)">L3</text><rect x="260.5" y="1169.5" width="714" height="130" stroke="#000000" stroke-width="4.58333" stroke-linejoin="round" stroke-miterlimit="10" fill="#D99694"/><text font-family="Arial,Arial_MSFontService,sans-serif" font-weight="700" font-size="73" transform="matrix(1 0 0 1 476.475 1261)">Memory</text><rect x="974.5" y="1169.5" width="715" height="130" stroke="#000000" stroke-width="4.58333" stroke-linejoin="round" stroke-miterlimit="10" fill="#D99694"/><text font-family="Arial,Arial_MSFontService,sans-serif" font-weight="700" font-size="73" transform="matrix(1 0 0 1 1191.04 1261)">Memory</text><rect x="1754.5" y="1169.5" width="715" height="130" stroke="#000000" stroke-width="4.58333" stroke-linejoin="round" stroke-miterlimit="10" fill="#D99694"/><text font-family="Arial,Arial_MSFontService,sans-serif" font-weight="700" font-size="73" transform="matrix(1 0 0 1 1970.57 1261)">Memory</text><rect x="2469.5" y="1169.5" width="714" height="130" stroke="#000000" stroke-width="4.58333" stroke-linejoin="round" stroke-miterlimit="10" fill="#D99694"/><text font-family="Arial,Arial_MSFontService,sans-serif" font-weight="700" font-size="73" transform="matrix(1 0 0 1 2685.14 1261)">Memory</text><g filter="url(#fx0)" transform="translate(594 1031)"><g><path d="M23.0001 16.3007 23.0004 146.222" stroke="#000000" stroke-width="14" stroke-linejoin="round" stroke-miterlimit="10" fill="none" fill-rule="evenodd"/></g></g><path d="M617 1039 617 1168.92" stroke="#000000" stroke-width="13.75" stroke-linejoin="round" stroke-miterlimit="10" fill="none" fill-rule="evenodd"/><g filter="url(#fx1)" transform="translate(1309 1031)"><g><path d="M23 16.3007 23.0004 146.222" stroke="#000000" stroke-width="14" stroke-linejoin="round" stroke-miterlimit="10" fill="none" fill-rule="evenodd"/></g></g><path d="M1332 1039 1332 1168.92" stroke="#000000" stroke-width="13.75" stroke-linejoin="round" stroke-miterlimit="10" fill="none" fill-rule="evenodd"/><g filter="url(#fx2)" transform="translate(2088 1031)"><g><path d="M23 16.3007 23.0004 146.222" stroke="#000000" stroke-width="14" stroke-linejoin="round" stroke-miterlimit="10" fill="none" fill-rule="evenodd"/></g></g><path d="M2111 1039 2111 1168.92" stroke="#000000" stroke-width="13.75" stroke-linejoin="round" stroke-miterlimit="10" fill="none" fill-rule="evenodd"/><g filter="url(#fx3)" transform="translate(2803 1031)"><g><path d="M23 16.3007 23.0004 146.222" stroke="#000000" stroke-width="14" stroke-linejoin="round" stroke-miterlimit="10" fill="none" fill-rule="evenodd"/></g></g><path d="M2826 1039 2826 1168.92" stroke="#000000" stroke-width="13.75" stroke-linejoin="round" stroke-miterlimit="10" fill="none" fill-rule="evenodd"/><g filter="url(#fx4)" transform="translate(601 1089)"><g><path d="M16.0001 23.3007 2224.66 24.4855" stroke="#000000" stroke-width="14" stroke-linejoin="round" stroke-miterlimit="10" fill="none" fill-rule="evenodd"/></g></g><path d="M617 1104 2825.66 1105.18" stroke="#000000" stroke-width="13.75" stroke-linejoin="round" stroke-miterlimit="10" fill="none" fill-rule="evenodd"/><rect x="1462" y="1429" width="519" height="130" fill="#4BACC6"/><text fill="#FFFFFF" font-family="Arial,Arial_MSFontService,sans-serif" font-weight="700" font-size="83" transform="matrix(1 0 0 1 1509.87 1526)">NUMA LDs</text><path d="M1720.53 1435.75 629.712 1307.42 631.319 1293.76 1722.13 1422.09ZM664.541 1334.8 616.968 1299 671.552 1275.21C675.033 1273.69 679.084 1275.29 680.601 1278.77 682.118 1282.25 680.526 1286.3 677.045 1287.82L633.266 1306.89 634.654 1295.1 672.809 1323.81C675.843 1326.1 676.452 1330.41 674.168 1333.44 671.885 1336.48 667.575 1337.08 664.541 1334.8Z" fill="#4BACC6"/><path d="M1719.59 1435.44 1342.74 1309.83 1347.09 1296.78 1723.94 1422.4ZM1371.27 1343.72 1331.97 1298.99 1390.25 1286.79C1393.96 1286.01 1397.61 1288.4 1398.39 1292.11 1399.16 1295.83 1396.78 1299.47 1393.06 1300.25L1346.32 1310.03 1350.08 1298.77 1381.6 1334.64C1384.11 1337.49 1383.83 1341.83 1380.98 1344.34 1378.12 1346.85 1373.78 1346.57 1371.27 1343.72Z" fill="#4BACC6"/><path d="M2.17407-6.5222 379.025 119.095 374.677 132.139-2.17407 6.5222ZM350.49 85.2062 389.794 129.931 331.516 142.129C327.799 142.907 324.156 140.525 323.378 136.808 322.6 133.092 324.983 129.449 328.699 128.671L375.441 118.887 371.686 130.155 340.162 94.2828C337.655 91.4307 337.935 87.0867 340.788 84.5803 343.64 82.0738 347.984 82.3541 350.49 85.2062Z" fill="#4BACC6" transform="matrix(1 0 0 -1 1721 1428.92)"/><path d="M0.803284-6.82791 1091.62 121.503 1090.01 135.159-0.803284 6.82791ZM1056.79 94.1203 1104.36 129.925 1049.78 153.711C1046.3 155.228 1042.25 153.636 1040.73 150.155 1039.21 146.674 1040.81 142.623 1044.29 141.106L1088.06 122.028 1086.68 133.824 1048.52 105.106C1045.49 102.823 1044.88 98.5128 1047.16 95.4791 1049.45 92.4454 1053.76 91.837 1056.79 94.1203Z" fill="#4BACC6" transform="matrix(1 0 0 -1 1721 1428.92)"/><text font-family="Arial,Arial_MSFontService,sans-serif" font-weight="700" font-size="147" transform="matrix(1 0 0 1 543.792 725)">…</text><text font-family="Arial,Arial_MSFontService,sans-serif" font-weight="700" font-size="147" transform="matrix(1 0 0 1 1257.45 725)">…</text><text font-family="Arial,Arial_MSFontService,sans-serif" font-weight="700" font-size="147" transform="matrix(1 0 0 1 2751.54 725)">…</text><text font-family="Arial,Arial_MSFontService,sans-serif" font-weight="700" font-size="147" transform="matrix(1 0 0 1 2037.89 724)">…</text><rect x="1570" y="309" width="303" height="133" fill="#9BBB59"/><text fill="#FFFFFF" font-family="Arial,Arial_MSFontService,sans-serif" font-weight="700" font-size="83" transform="matrix(1 0 0 1 1604.58 406)">Cores</text><path d="M4.29225-5.37049 90.8993 63.8483 82.3148 74.5893-4.29225 5.37049ZM75.8206 22.1924 97.2655 77.7374 38.3597 69.0637C34.6033 68.5106 32.0064 65.017 32.5596 61.2605 33.1127 57.5041 36.6063 54.9072 40.3627 55.4604L87.6086 62.4171 80.1935 71.695 62.9934 27.1447C61.6258 23.6026 63.3887 19.6225 66.9308 18.255 70.4729 16.8874 74.453 18.6503 75.8206 22.1924Z" fill="#9BBB59" transform="matrix(-1 0 0 1 1721.24 442)"/><path d="M2.2237-6.50544 216.705 66.809 212.258 79.8199-2.2237 6.50544ZM188.431 32.7045 227.393 77.7278 169.023 89.4811C165.301 90.2306 161.676 87.8207 160.926 84.0985 160.177 80.3762 162.587 76.7512 166.309 76.0016L213.125 66.5748 209.283 77.8133 178.033 41.7021C175.549 38.8309 175.862 34.4892 178.733 32.0046 181.604 29.52 185.946 29.8333 188.431 32.7045Z" fill="#9BBB59" transform="matrix(-1 0 0 1 1721.36 442)"/><path d="M1725.29 436.625 1812.09 505.855 1803.51 516.604 1716.71 447.375ZM1796.97 464.214 1818.47 519.737 1759.55 511.123C1755.79 510.573 1753.19 507.082 1753.74 503.325 1754.29 499.568 1757.78 496.968 1761.54 497.517L1808.79 504.427 1801.39 513.712 1784.14 469.179C1782.77 465.638 1784.53 461.657 1788.07 460.285 1791.61 458.914 1795.59 460.673 1796.97 464.214Z" fill="#9BBB59"/><path d="M1723.22 435.494 1937.9 508.812 1933.46 521.824 1718.78 448.506ZM1909.62 474.715 1948.59 519.728 1890.23 531.497C1886.5 532.247 1882.88 529.839 1882.13 526.116 1881.38 522.394 1883.79 518.769 1887.51 518.018L1934.32 508.579 1930.48 519.818 1899.22 483.715C1896.74 480.845 1897.05 476.503 1899.92 474.018 1902.79 471.532 1907.13 471.845 1909.62 474.715Z" fill="#9BBB59"/></g></svg>