<svg width="2377" height="1110" xmlns="http://www.w3.org/2000/svg" xmlns:xlink="http://www.w3.org/1999/xlink" xml:space="preserve" overflow="hidden"><defs><filter id="fx0" x="-10%" y="-10%" width="120%" height="120%" filterUnits="userSpaceOnUse" primitiveUnits="userSpaceOnUse"><feComponentTransfer color-interpolation-filters="sRGB"><feFuncR type="discrete" tableValues="0 0"/><feFuncG type="discrete" tableValues="0 0"/><feFuncB type="discrete" tableValues="0 0"/><feFuncA type="linear" slope="0.34902" intercept="0"/></feComponentTransfer><feGaussianBlur stdDeviation="4.8119 4.8119"/></filter><filter id="fx1" x="-10%" y="-10%" width="120%" height="120%" filterUnits="userSpaceOnUse" primitiveUnits="userSpaceOnUse"><feComponentTransfer color-interpolation-filters="sRGB"><feFuncR type="discrete" tableValues="0 0"/><feFuncG type="discrete" tableValues="0 0"/><feFuncB type="discrete" tableValues="0 0"/><feFuncA type="linear" slope="0.34902" intercept="0"/></feComponentTransfer><feGaussianBlur stdDeviation="4.8119 4.8119"/></filter><filter id="fx2" x="-10%" y="-10%" width="120%" height="120%" filterUnits="userSpaceOnUse" primitiveUnits="userSpaceOnUse"><feComponentTransfer color-interpolation-filters="sRGB"><feFuncR type="discrete" tableValues="0 0"/><feFuncG type="discrete" tableValues="0 0"/><feFuncB type="discrete" tableValues="0 0"/><feFuncA type="linear" slope="0.34902" intercept="0"/></feComponentTransfer><feGaussianBlur stdDeviation="4.8119 4.8119"/></filter></defs><g transform="translate(-226 -355)"><text font-family="Consolas,Consolas_MSFontService,sans-serif" font-weight="400" font-size="83" transform="matrix(1 0 0 1 275.587 646)">std::</text><text font-family="Consolas,Consolas_MSFontService,sans-serif" font-weight="400" font-size="83" transform="matrix(1 0 0 1 501.889 646)">cout</text><text font-family="Consolas,Consolas_MSFontService,sans-serif" font-weight="400" font-size="83" transform="matrix(1 0 0 1 728.191 646)">&lt;&lt; </text><text font-family="Consolas,Consolas_MSFontService,sans-serif" font-weight="400" font-size="83" transform="matrix(1 0 0 1 863.973 646)">"serial</text><text font-family="Consolas,Consolas_MSFontService,sans-serif" font-weight="400" font-size="83" transform="matrix(1 0 0 1 1180.8 646)">"</text><text font-family="Consolas,Consolas_MSFontService,sans-serif" font-weight="400" font-size="83" transform="matrix(1 0 0 1 1226.06 646)">;</text><text font-family="Consolas,Consolas_MSFontService,sans-serif" font-weight="400" font-size="83" transform="matrix(1 0 0 1 275.587 844)">#pragma </text><text font-family="Consolas,Consolas_MSFontService,sans-serif" font-weight="400" font-size="83" transform="matrix(1 0 0 1 637.67 844)">omp</text><text font-family="Consolas,Consolas_MSFontService,sans-serif" font-weight="400" font-size="83" transform="matrix(1 0 0 1 818.712 844)">parallel</text><text font-family="Consolas,Consolas_MSFontService,sans-serif" font-weight="400" font-size="83" transform="matrix(1 0 0 1 275.587 943)">{</text><text font-family="Consolas,Consolas_MSFontService,sans-serif" font-weight="400" font-size="83" transform="matrix(1 0 0 1 366.108 1042)">std::</text><text font-family="Consolas,Consolas_MSFontService,sans-serif" font-weight="400" font-size="83" transform="matrix(1 0 0 1 592.41 1042)">cout</text><text font-family="Consolas,Consolas_MSFontService,sans-serif" font-weight="400" font-size="83" transform="matrix(1 0 0 1 818.712 1042)">&lt;&lt; "parallel";</text><text font-family="Consolas,Consolas_MSFontService,sans-serif" font-weight="400" font-size="83" transform="matrix(1 0 0 1 275.587 1141)">}</text><text font-family="Consolas,Consolas_MSFontService,sans-serif" font-weight="400" font-size="83" transform="matrix(1 0 0 1 275.587 1339)">std::</text><text font-family="Consolas,Consolas_MSFontService,sans-serif" font-weight="400" font-size="83" transform="matrix(1 0 0 1 501.889 1339)">cout</text><text font-family="Consolas,Consolas_MSFontService,sans-serif" font-weight="400" font-size="83" transform="matrix(1 0 0 1 728.191 1339)">&lt;&lt; "serial";</text><rect x="252" y="756" width="1208" height="429" stroke="#F79646" stroke-width="13.75" stroke-linejoin="round" stroke-miterlimit="10" stroke-dasharray="13.75 13.75" fill="none"/><rect x="1364.5" y="390.5" width="270" height="130" stroke="#000000" stroke-width="9.16667" stroke-linejoin="round" stroke-miterlimit="10" fill="#FFFFFF"/><text font-family="Arial,Arial_MSFontService,sans-serif" font-weight="400" font-size="50" transform="matrix(1 0 0 1 1398.48 473)">T</text><text font-family="Arial,Arial_MSFontService,sans-serif" font-weight="400" font-size="50" transform="matrix(1 0 0 1 1429.42 473)">hread</text><text font-family="Arial,Arial_MSFontService,sans-serif" font-weight="400" font-size="50" transform="matrix(1 0 0 1 1572.07 473)">0</text><rect x="985" y="1073" width="475" height="111" fill="#F79646" fill-opacity="0.501961"/><text font-family="Arial,Arial_MSFontService,sans-serif" font-weight="400" font-size="64" transform="matrix(1 0 0 1 1021.73 1152)">parallel region</text><path d="M1024 355 1181.5 355 1181.5 355 1249 355 1294 355 1294 387.834 1357.79 446.603 1294 437.083 1294 552 1249 552 1181.5 552 1181.5 552 1024 552 1024 437.083 1024 387.834 1024 387.834Z" fill="#4F81BD" fill-rule="evenodd" fill-opacity="0.501961"/><text font-family="Arial,Arial_MSFontService,sans-serif" font-weight="400" font-size="64" transform="matrix(1 0 0 1 1085.79 438)">initial </text><text font-family="Arial,Arial_MSFontService,sans-serif" font-weight="400" font-size="64" transform="matrix(1 0 0 1 1068.33 515)">thread</text><rect x="1689.5" y="390.5" width="260" height="130" stroke="#000000" stroke-width="9.16667" stroke-linejoin="round" stroke-miterlimit="10" fill="#FFFFFF"/><text font-family="Arial,Arial_MSFontService,sans-serif" font-weight="400" font-size="50" transform="matrix(1 0 0 1 1718.06 473)">Thread 1</text><rect x="2014.5" y="390.5" width="260" height="130" stroke="#000000" stroke-width="9.16667" stroke-linejoin="round" stroke-miterlimit="10" fill="#FFFFFF"/><text font-family="Arial,Arial_MSFontService,sans-serif" font-weight="400" font-size="50" transform="matrix(1 0 0 1 2042.87 473)">Thread 2</text><rect x="2339.5" y="390.5" width="259" height="130" stroke="#000000" stroke-width="9.16667" stroke-linejoin="round" stroke-miterlimit="10" fill="#FFFFFF"/><text font-family="Arial,Arial_MSFontService,sans-serif" font-weight="400" font-size="50" transform="matrix(1 0 0 1 2367.67 473)">Thread 3</text><text fill="#604A7B" font-family="Arial,Arial_MSFontService,sans-serif" font-weight="700" font-size="64" transform="matrix(1 0 0 1 1927.29 728)">fork</text><text fill="#31859C" font-family="Arial,Arial_MSFontService,sans-serif" font-weight="700" font-size="64" transform="matrix(1 0 0 1 1920.95 1258)">join</text><g filter="url(#fx0)" transform="translate(1478 1141)"><g><path d="M15.9999 23.3005 990.409 23.3009" stroke="#9BBB59" stroke-width="14" stroke-linejoin="round" stroke-miterlimit="10" fill="none" fill-rule="evenodd"/></g></g><path d="M1494 1156 2468.41 1156" stroke="#9BBB59" stroke-width="13.75" stroke-linejoin="round" stroke-miterlimit="10" fill="none" fill-rule="evenodd"/><path d="M1822.94 754.5 1822.94 1176.43 1816.06 1176.43 1816.06 754.5ZM1838.51 1150.67 1819.5 1183.26 1800.49 1150.67C1799.53 1149.03 1800.09 1146.92 1801.73 1145.96 1803.37 1145.01 1805.47 1145.56 1806.43 1147.2L1822.47 1174.7 1816.53 1174.7 1832.57 1147.2C1833.53 1145.56 1835.63 1145.01 1837.27 1145.96 1838.91 1146.92 1839.47 1149.03 1838.51 1150.67Z"/><text fill="#77933C" font-family="Arial,Arial_MSFontService,sans-serif" font-weight="700" font-size="64" transform="matrix(1 0 0 1 1514.39 1141)">barrier</text><g filter="url(#fx1)" transform="translate(1478 1167)"><g><path d="M15.9999 23.3007 990.409 23.301" stroke="#4F81BD" stroke-width="14" stroke-linejoin="round" stroke-miterlimit="10" fill="none" fill-rule="evenodd"/></g></g><path d="M1494 1182 2468.41 1182" stroke="#4F81BD" stroke-width="13.75" stroke-linejoin="round" stroke-miterlimit="10" fill="none" fill-rule="evenodd"/><path d="M2147.94 754.5 2147.94 1176.43 2141.06 1176.43 2141.06 754.5ZM2163.51 1150.67 2144.5 1183.26 2125.49 1150.67C2124.53 1149.03 2125.09 1146.92 2126.73 1145.96 2128.37 1145.01 2130.47 1145.56 2131.43 1147.2L2147.47 1174.7 2141.53 1174.7 2157.57 1147.2C2158.53 1145.56 2160.63 1145.01 2162.27 1145.96 2163.91 1146.92 2164.47 1149.03 2163.51 1150.67Z"/><path d="M2472.94 754.5 2472.94 1176.43 2466.06 1176.43 2466.06 754.5ZM2488.51 1150.67 2469.5 1183.26 2450.49 1150.67C2449.53 1149.03 2450.09 1146.92 2451.73 1145.96 2453.37 1145.01 2455.47 1145.56 2456.43 1147.2L2472.47 1174.7 2466.53 1174.7 2482.57 1147.2C2483.53 1145.56 2485.63 1145.01 2487.27 1145.96 2488.91 1146.92 2489.47 1149.03 2488.51 1150.67Z"/><g filter="url(#fx2)" transform="translate(1478 739)"><g><path d="M15.9999 23.3004 990.409 23.3007" stroke="#8064A2" stroke-width="14" stroke-linejoin="round" stroke-miterlimit="10" fill="none" fill-rule="evenodd"/></g></g><path d="M1494 754 2468.41 754" stroke="#8064A2" stroke-width="13.75" stroke-linejoin="round" stroke-miterlimit="10" fill="none" fill-rule="evenodd"/><path d="M1497.94 520.5 1497.94 1423.16 1491.06 1423.16 1491.06 520.5ZM1513.51 1397.37 1494.5 1429.96 1475.49 1397.37C1474.53 1395.73 1475.09 1393.63 1476.73 1392.67 1478.37 1391.72 1480.47 1392.27 1481.43 1393.91L1497.47 1421.41 1491.53 1421.41 1507.57 1393.91C1508.53 1392.27 1510.63 1391.72 1512.27 1392.67 1513.91 1393.63 1514.47 1395.73 1513.51 1397.37Z"/></g></svg>